<svg width="161" height="55" viewBox="0 0 161 55" fill="none" xmlns="http://www.w3.org/2000/svg">
<path d="M9.904 36.416C8.67733 36.416 7.49867 36.224 6.368 35.84C5.23733 35.456 4.25067 34.9067 3.408 34.192C2.56533 33.4667 1.96267 32.608 1.6 31.616L4.72 30.448C4.90133 30.96 5.248 31.4187 5.76 31.824C6.28267 32.2187 6.90133 32.528 7.616 32.752C8.34133 32.976 9.104 33.088 9.904 33.088C10.7573 33.088 11.5573 32.9493 12.304 32.672C13.0613 32.3947 13.6693 32.0107 14.128 31.52C14.5973 31.0293 14.832 30.4533 14.832 29.792C14.832 29.1093 14.5867 28.5493 14.096 28.112C13.616 27.6747 12.9973 27.328 12.24 27.072C11.4933 26.816 10.7147 26.624 9.904 26.496C8.336 26.24 6.928 25.8667 5.68 25.376C4.44267 24.8853 3.46133 24.1973 2.736 23.312C2.02133 22.4267 1.664 21.2747 1.664 19.856C1.664 18.5227 2.04267 17.36 2.8 16.368C3.568 15.376 4.576 14.608 5.824 14.064C7.08267 13.5093 8.44267 13.232 9.904 13.232C11.1093 13.232 12.272 13.424 13.392 13.808C14.5227 14.1813 15.5147 14.7307 16.368 15.456C17.232 16.1707 17.8507 17.04 18.224 18.064L15.072 19.2C14.8907 18.6773 14.544 18.224 14.032 17.84C13.52 17.4453 12.9013 17.136 12.176 16.912C11.4613 16.688 10.704 16.576 9.904 16.576C9.05067 16.5653 8.25067 16.704 7.504 16.992C6.768 17.2693 6.16533 17.6533 5.696 18.144C5.22667 18.6347 4.992 19.2053 4.992 19.856C4.992 20.656 5.21067 21.264 5.648 21.68C6.08533 22.096 6.672 22.4053 7.408 22.608C8.15467 22.8 8.98667 22.976 9.904 23.136C11.376 23.3707 12.736 23.76 13.984 24.304C15.2427 24.848 16.2507 25.5733 17.008 26.48C17.776 27.376 18.16 28.48 18.16 29.792C18.16 31.1147 17.776 32.2773 17.008 33.28C16.2507 34.272 15.2427 35.0453 13.984 35.6C12.736 36.144 11.376 36.416 9.904 36.416ZM29.8993 23.328H26.5393L26.5233 36H23.1953L23.2113 23.328H20.6673V20H23.2113L23.1953 14.976H26.5233L26.5393 20H29.8993V23.328ZM32.7638 36V20H36.0918V21.696C36.6464 21.0347 37.3291 20.512 38.1398 20.128C38.9504 19.744 39.8251 19.552 40.7638 19.552C41.3611 19.552 41.9531 19.632 42.5398 19.792L41.2118 23.152C40.7958 22.992 40.3798 22.912 39.9638 22.912C39.2598 22.912 38.6144 23.088 38.0278 23.44C37.4411 23.7813 36.9718 24.2453 36.6198 24.832C36.2678 25.4187 36.0918 26.0693 36.0918 26.784V36H32.7638ZM56.0868 20H59.4148V36H56.0708L55.9428 33.68C55.4734 34.5013 54.8388 35.1627 54.0388 35.664C53.2388 36.1653 52.2948 36.416 51.2068 36.416C50.0334 36.416 48.9294 36.1973 47.8948 35.76C46.8601 35.312 45.9481 34.6933 45.1588 33.904C44.3801 33.1147 43.7721 32.208 43.3348 31.184C42.8974 30.1493 42.6788 29.04 42.6788 27.856C42.6788 26.7147 42.8921 25.6427 43.3188 24.64C43.7454 23.6267 44.3374 22.7413 45.0948 21.984C45.8521 21.2267 46.7268 20.6347 47.7188 20.208C48.7214 19.7707 49.7934 19.552 50.9348 19.552C52.0974 19.552 53.1214 19.8187 54.0068 20.352C54.9028 20.8747 55.6441 21.5467 56.2308 22.368L56.0868 20ZM51.1267 33.2C52.0654 33.2 52.8868 32.9707 53.5908 32.512C54.2948 32.0427 54.8388 31.4133 55.2228 30.624C55.6174 29.8347 55.8148 28.96 55.8148 28C55.8148 27.0293 55.6174 26.1493 55.2228 25.36C54.8281 24.5707 54.2788 23.9467 53.5748 23.488C52.8814 23.0187 52.0654 22.784 51.1267 22.784C50.1988 22.784 49.3508 23.0187 48.5828 23.488C47.8148 23.9573 47.2068 24.5867 46.7588 25.376C46.3108 26.1653 46.0868 27.04 46.0868 28C46.0868 28.9707 46.3161 29.8507 46.7748 30.64C47.2441 31.4187 47.8574 32.0427 48.6148 32.512C49.3828 32.9707 50.2201 33.2 51.1267 33.2ZM65.9355 44H62.6075V20H65.9355V22.352C66.4688 21.5307 67.1515 20.864 67.9835 20.352C68.8155 19.84 69.7968 19.584 70.9275 19.584C72.0902 19.584 73.1782 19.8027 74.1915 20.24C75.2155 20.6773 76.1115 21.2853 76.8795 22.064C77.6475 22.832 78.2502 23.7227 78.6875 24.736C79.1248 25.7493 79.3435 26.8373 79.3435 28C79.3435 29.1627 79.1248 30.256 78.6875 31.28C78.2502 32.304 77.6475 33.2053 76.8795 33.984C76.1115 34.752 75.2155 35.3547 74.1915 35.792C73.1782 36.2293 72.0902 36.448 70.9275 36.448C69.7968 36.448 68.8155 36.192 67.9835 35.68C67.1515 35.1573 66.4688 34.4907 65.9355 33.68V44ZM70.8955 22.8C69.9675 22.8 69.1515 23.0347 68.4475 23.504C67.7435 23.9733 67.1942 24.6027 66.7995 25.392C66.4048 26.1707 66.2075 27.04 66.2075 28C66.2075 28.96 66.4048 29.8347 66.7995 30.624C67.1942 31.4133 67.7435 32.0427 68.4475 32.512C69.1515 32.9813 69.9675 33.216 70.8955 33.216C71.8128 33.216 72.6555 32.9867 73.4235 32.528C74.1915 32.0587 74.8048 31.4293 75.2635 30.64C75.7222 29.8507 75.9515 28.9707 75.9515 28C75.9515 27.0507 75.7222 26.1813 75.2635 25.392C74.8155 24.6027 74.2075 23.9733 73.4395 23.504C72.6715 23.0347 71.8235 22.8 70.8955 22.8Z" fill="#0F0F0F"/>
<path d="M87.5 39.708C86.204 39.708 85.112 39.468 84.224 38.988C83.36 38.508 82.712 37.872 82.28 37.08C81.848 36.288 81.632 35.424 81.632 34.488C81.632 33.528 81.86 32.556 82.316 31.572C82.748 30.564 83.408 29.652 84.296 28.836C86.024 27.228 87.956 26.052 90.092 25.308C92.252 24.54 94.556 24.06 97.004 23.868C97.172 22.596 97.268 21.444 97.292 20.412C97.34 19.356 97.364 18.492 97.364 17.82C96.428 18.636 95.312 19.344 94.016 19.944C92.744 20.52 91.436 20.964 90.092 21.276C88.772 21.588 87.536 21.744 86.384 21.744C84.848 21.744 83.696 21.408 82.928 20.736C82.136 20.064 81.74 19.284 81.74 18.396C81.74 17.676 82.004 16.968 82.532 16.272C83.036 15.576 83.804 15 84.836 14.544C85.868 14.088 87.152 13.86 88.688 13.86C89.816 13.86 90.824 13.98 91.712 14.22C92.624 14.46 93.308 14.712 93.764 14.976C94.004 15.12 94.124 15.24 94.124 15.336C94.124 15.48 93.98 15.552 93.692 15.552C93.572 15.552 93.476 15.54 93.404 15.516C92.876 15.372 92.216 15.264 91.424 15.192C90.632 15.096 89.984 15.048 89.48 15.048C87.728 15.048 86.42 15.396 85.556 16.092C84.692 16.788 84.26 17.52 84.26 18.288C84.26 18.912 84.548 19.464 85.124 19.944C85.7 20.424 86.552 20.664 87.68 20.664C88.928 20.664 90.164 20.484 91.388 20.124C92.636 19.74 93.776 19.284 94.808 18.756C95.864 18.228 96.716 17.724 97.364 17.244C97.34 16.956 97.316 16.62 97.292 16.236C97.292 15.828 97.292 15.396 97.292 14.94C97.292 14.316 97.34 13.704 97.436 13.104C97.532 12.48 97.712 11.976 97.976 11.592C98.24 11.184 98.636 10.98 99.164 10.98C99.572 10.98 99.872 11.136 100.064 11.448C100.256 11.76 100.352 12.156 100.352 12.636C100.352 13.38 100.148 14.196 99.74 15.084C99.332 15.972 98.804 16.656 98.156 17.136C98.204 17.592 98.288 18.42 98.408 19.62C98.552 20.82 98.636 22.2 98.66 23.76C99.116 23.736 99.572 23.724 100.028 23.724C100.508 23.7 100.976 23.688 101.432 23.688C101.84 23.688 102.26 23.7 102.692 23.724C103.148 23.724 103.592 23.736 104.024 23.76C104.648 23.784 105.284 23.82 105.932 23.868C106.58 23.892 107.204 23.916 107.804 23.94C107.876 22.596 107.972 21.18 108.092 19.692C108.236 18.204 108.392 16.752 108.56 15.336C108.752 13.896 108.956 12.6 109.172 11.448C109.196 11.376 109.268 11.34 109.388 11.34C109.508 11.316 109.568 11.304 109.568 11.304C110.192 11.304 110.732 11.388 111.188 11.556C111.644 11.7 111.872 11.952 111.872 12.312C111.8 12.696 111.668 13.476 111.476 14.652C111.284 15.804 111.08 17.196 110.864 18.828C110.648 20.46 110.468 22.164 110.324 23.94C110.924 23.94 111.368 23.88 111.656 23.76C111.872 23.664 112.052 23.616 112.196 23.616C112.34 23.616 112.412 23.676 112.412 23.796C112.412 23.964 112.304 24.132 112.088 24.3C111.704 24.564 111.092 24.732 110.252 24.804C110.204 25.404 110.144 26.196 110.072 27.18C110 28.164 109.964 29.184 109.964 30.24C109.964 31.296 110.024 32.316 110.144 33.3C110.264 34.284 110.468 35.088 110.756 35.712C111.068 36.336 111.5 36.648 112.052 36.648C112.292 36.648 112.544 36.54 112.808 36.324C113.072 36.108 113.228 35.916 113.276 35.748C113.348 35.556 113.432 35.46 113.528 35.46C113.672 35.46 113.744 35.592 113.744 35.856V35.892C113.744 36.468 113.528 36.9 113.096 37.188C112.664 37.5 112.148 37.656 111.548 37.656C110.732 37.656 110.06 37.392 109.532 36.864C109.028 36.36 108.632 35.676 108.344 34.812C108.08 33.924 107.888 32.94 107.768 31.86C107.672 30.78 107.624 29.688 107.624 28.584C107.624 27.264 107.66 26.052 107.732 24.948C107.084 24.948 106.4 24.936 105.68 24.912C104.984 24.888 104.288 24.876 103.592 24.876C102.8 24.876 101.984 24.888 101.144 24.912C100.328 24.912 99.5 24.936 98.66 24.984C98.636 26.448 98.492 27.936 98.228 29.448C97.988 30.936 97.556 32.304 96.932 33.552C96.356 34.704 95.588 35.748 94.628 36.684C93.692 37.62 92.612 38.352 91.388 38.88C90.188 39.432 88.892 39.708 87.5 39.708ZM86.348 38.736C87.644 38.736 88.82 38.4 89.876 37.728C90.956 37.08 91.916 36.216 92.756 35.136C93.596 34.056 94.316 32.88 94.916 31.608C95.396 30.6 95.792 29.544 96.104 28.44C96.416 27.312 96.656 26.22 96.824 25.164C94.832 25.38 92.9 25.812 91.028 26.46C89.156 27.108 87.512 28.152 86.096 29.592C85.712 29.976 85.316 30.528 84.908 31.248C84.5 31.968 84.152 32.748 83.864 33.588C83.6 34.404 83.468 35.184 83.468 35.928C83.468 36.72 83.684 37.38 84.116 37.908C84.548 38.46 85.292 38.736 86.348 38.736ZM117.81 36.36C116.994 36.36 116.322 36.144 115.794 35.712C115.29 35.28 114.894 34.716 114.606 34.02C114.342 33.324 114.15 32.568 114.03 31.752C113.934 30.912 113.886 30.096 113.886 29.304C113.886 28.704 113.91 28.152 113.958 27.648C114.006 27.12 114.042 26.664 114.066 26.28C114.186 25.272 114.45 24.264 114.858 23.256C115.266 22.224 115.866 21.372 116.658 20.7C117.45 20.004 118.494 19.656 119.79 19.656C120.702 19.656 121.398 19.956 121.878 20.556C122.382 21.132 122.73 21.888 122.922 22.824C123.114 23.736 123.21 24.708 123.21 25.74C123.21 26.028 123.198 26.316 123.174 26.604C123.174 26.892 123.162 27.18 123.138 27.468C123.738 28.14 124.458 28.476 125.298 28.476C125.946 28.476 126.582 28.236 127.206 27.756C127.35 27.636 127.482 27.576 127.602 27.576C127.698 27.576 127.746 27.636 127.746 27.756C127.746 27.972 127.686 28.116 127.566 28.188C127.182 28.548 126.774 28.812 126.342 28.98C125.91 29.148 125.478 29.232 125.046 29.232C124.302 29.232 123.618 29.016 122.994 28.584C122.946 29.04 122.874 29.472 122.778 29.88C122.706 30.264 122.634 30.6 122.562 30.888C122.346 31.632 122.022 32.436 121.59 33.3C121.182 34.14 120.654 34.86 120.006 35.46C119.382 36.06 118.65 36.36 117.81 36.36ZM118.998 34.38C119.502 34.38 119.922 34.14 120.258 33.66C120.618 33.18 120.918 32.628 121.158 32.004C121.398 31.38 121.566 30.852 121.662 30.42C121.734 30.084 121.794 29.7 121.842 29.268C121.89 28.836 121.926 28.32 121.95 27.72C121.614 27.432 121.326 26.916 121.086 26.172C120.87 25.404 120.762 24.672 120.762 23.976C120.762 23.496 120.822 23.076 120.942 22.716C121.062 22.332 121.242 22.08 121.482 21.96C121.338 21.6 121.146 21.264 120.906 20.952C120.666 20.616 120.33 20.448 119.898 20.448C119.49 20.448 119.118 20.688 118.782 21.168C118.47 21.648 118.194 22.224 117.954 22.896C117.714 23.568 117.522 24.204 117.378 24.804C117.258 25.404 117.186 25.824 117.162 26.064C117.138 26.328 117.102 26.736 117.054 27.288C117.006 27.816 116.982 28.404 116.982 29.052C116.982 29.868 117.03 30.684 117.126 31.5C117.246 32.316 117.45 33 117.738 33.552C118.026 34.104 118.446 34.38 118.998 34.38ZM128.682 36.144C128.154 36.144 127.674 35.928 127.242 35.496C126.834 35.064 126.534 34.404 126.342 33.516C126.246 33.108 126.174 32.592 126.126 31.968C126.102 31.344 126.09 30.684 126.09 29.988C126.09 28.932 126.126 27.84 126.198 26.712C126.294 25.584 126.414 24.552 126.558 23.616C126.702 22.656 126.87 21.924 127.062 21.42C127.182 21.132 127.398 20.88 127.71 20.664C128.046 20.448 128.478 20.34 129.006 20.34C129.366 20.34 129.726 20.388 130.086 20.484C130.014 20.748 129.87 21.372 129.654 22.356C129.462 23.34 129.294 24.432 129.15 25.632C129.054 26.472 128.97 27.336 128.898 28.224C128.826 29.088 128.79 29.904 128.79 30.672C128.79 31.656 128.874 32.484 129.042 33.156C129.21 33.804 129.486 34.128 129.87 34.128C130.326 34.128 130.722 33.864 131.058 33.336C131.418 32.784 131.73 32.1 131.994 31.284C132.258 30.468 132.462 29.652 132.606 28.836C132.822 27.636 133.014 26.352 133.182 24.984C133.35 23.592 133.542 22.404 133.758 21.42C133.83 21.132 134.034 20.88 134.37 20.664C134.73 20.448 135.174 20.34 135.702 20.34C136.062 20.34 136.422 20.388 136.782 20.484C136.59 21.012 136.398 21.804 136.206 22.86C136.038 23.916 135.894 25.08 135.774 26.352C135.654 27.624 135.594 28.884 135.594 30.132C135.594 30.756 135.618 31.44 135.666 32.184C135.738 32.928 135.87 33.564 136.062 34.092C136.278 34.62 136.578 34.884 136.962 34.884H136.998C137.19 34.884 137.394 34.788 137.61 34.596C137.85 34.404 138.102 34.044 138.366 33.516C138.558 33.18 138.726 32.784 138.87 32.328C139.014 31.872 139.17 31.38 139.338 30.852C139.434 30.636 139.53 30.528 139.626 30.528C139.746 30.528 139.806 30.672 139.806 30.96V31.104C139.758 31.728 139.59 32.436 139.302 33.228C139.014 34.02 138.606 34.704 138.078 35.28C137.574 35.856 136.962 36.144 136.242 36.144C135.426 36.144 134.778 35.856 134.298 35.28C133.818 34.68 133.47 33.96 133.254 33.12C133.038 32.256 132.906 31.428 132.858 30.636C132.69 31.26 132.498 31.884 132.282 32.508C132.066 33.132 131.802 33.684 131.49 34.164C130.626 35.484 129.69 36.144 128.682 36.144ZM142.869 36.396C141.789 36.396 140.877 36.144 140.133 35.64C139.413 35.112 139.053 34.188 139.053 32.868C139.053 32.82 139.053 32.712 139.053 32.544C139.077 32.352 139.101 32.16 139.125 31.968C138.981 31.704 138.909 31.344 138.909 30.888C138.909 30.6 138.957 30.348 139.053 30.132C139.149 29.916 139.293 29.808 139.485 29.808H139.521C139.593 29.808 139.689 29.892 139.809 30.06C140.121 29.172 140.409 28.26 140.673 27.324C140.937 26.364 141.177 25.512 141.393 24.768C141.633 23.904 141.933 22.98 142.293 21.996C142.677 20.988 143.277 20.22 144.093 19.692C144.717 19.284 145.389 19.08 146.109 19.08C146.157 19.08 146.217 19.092 146.289 19.116C146.361 19.116 146.421 19.116 146.469 19.116C146.661 19.14 146.757 19.224 146.757 19.368C146.757 19.536 146.673 19.62 146.505 19.62C146.241 19.644 146.049 19.86 145.929 20.268C145.809 20.652 145.749 21.096 145.749 21.6C145.749 21.72 145.749 21.852 145.749 21.996C145.749 22.14 145.761 22.272 145.785 22.392C145.881 23.184 146.097 24.06 146.433 25.02C146.769 25.956 147.081 26.904 147.369 27.864C147.681 28.8 147.837 29.676 147.837 30.492V30.672C147.837 30.984 147.813 31.32 147.765 31.68C147.741 32.04 147.669 32.388 147.549 32.724C147.885 32.7 148.209 32.664 148.521 32.616C148.857 32.544 149.157 32.46 149.421 32.364C149.757 32.22 150.021 32.052 150.213 31.86C150.429 31.668 150.609 31.452 150.753 31.212C150.801 31.14 150.861 31.104 150.933 31.104C151.125 31.104 151.221 31.224 151.221 31.464C151.221 31.536 151.197 31.62 151.149 31.716C150.885 32.244 150.405 32.676 149.709 33.012C149.013 33.348 148.197 33.54 147.261 33.588C146.925 34.356 146.397 35.016 145.677 35.568C144.981 36.12 144.045 36.396 142.869 36.396ZM144.597 32.328C144.645 32.064 144.681 31.788 144.705 31.5C144.729 31.212 144.741 30.924 144.741 30.636C144.741 30.18 144.717 29.724 144.669 29.268C144.621 28.788 144.561 28.32 144.489 27.864C144.321 26.736 144.117 25.704 143.877 24.768C143.661 23.832 143.553 22.992 143.553 22.248C143.553 21.864 143.589 21.516 143.661 21.204C143.541 21.204 143.409 21.384 143.265 21.744C143.121 22.104 142.977 22.512 142.833 22.968C142.689 23.424 142.569 23.832 142.473 24.192C142.185 25.224 141.873 26.292 141.537 27.396C141.201 28.476 140.841 29.544 140.457 30.6C140.721 30.768 141.021 30.936 141.357 31.104C141.717 31.272 142.065 31.428 142.401 31.572C142.713 31.716 143.049 31.86 143.409 32.004C143.793 32.124 144.189 32.232 144.597 32.328ZM141.897 35.208H142.041C142.473 35.16 142.905 35.016 143.337 34.776C143.769 34.512 144.081 34.116 144.273 33.588C144.273 33.564 144.273 33.552 144.273 33.552C144.297 33.528 144.309 33.504 144.309 33.48C143.421 33.408 142.581 33.3 141.789 33.156C141.021 32.988 140.397 32.784 139.917 32.544C139.917 32.616 139.905 32.688 139.881 32.76C139.881 32.832 139.881 32.892 139.881 32.94C139.881 33.66 140.061 34.224 140.421 34.632C140.805 35.016 141.297 35.208 141.897 35.208ZM155.557 36.684C154.405 36.684 153.469 36.336 152.749 35.64C152.053 34.92 151.537 34.044 151.201 33.012C150.889 31.956 150.733 30.924 150.733 29.916C150.733 28.764 150.853 27.612 151.093 26.46C151.333 25.284 151.705 24.216 152.209 23.256C152.737 22.296 153.397 21.528 154.189 20.952C154.981 20.352 155.917 20.052 156.997 20.052C157.765 20.052 158.365 20.28 158.797 20.736C159.229 21.192 159.445 21.864 159.445 22.752C159.445 23.952 159.145 25.02 158.545 25.956C157.969 26.868 157.237 27.612 156.349 28.188C155.461 28.764 154.537 29.16 153.577 29.376V29.556C153.577 30.54 153.673 31.464 153.865 32.328C154.081 33.168 154.417 33.852 154.873 34.38C155.353 34.884 155.977 35.136 156.745 35.136C157.681 35.136 158.401 34.752 158.905 33.984C159.409 33.192 159.805 32.196 160.093 30.996C160.117 30.9 160.153 30.816 160.201 30.744C160.273 30.648 160.333 30.6 160.381 30.6C160.597 30.6 160.693 30.756 160.669 31.068C160.597 31.716 160.453 32.328 160.237 32.904C160.021 33.48 159.793 33.972 159.553 34.38C159.097 35.124 158.545 35.688 157.897 36.072C157.273 36.48 156.493 36.684 155.557 36.684ZM153.613 28.548C154.381 28.356 155.053 27.984 155.629 27.432C156.205 26.856 156.649 26.184 156.961 25.416C157.297 24.648 157.465 23.868 157.465 23.076V22.896C157.465 22.464 157.393 22.056 157.249 21.672C157.129 21.288 156.889 21.096 156.529 21.096C156.097 21.096 155.713 21.312 155.377 21.744C155.065 22.152 154.789 22.68 154.549 23.328C154.333 23.976 154.153 24.648 154.009 25.344C153.865 26.04 153.757 26.676 153.685 27.252C153.637 27.828 153.613 28.248 153.613 28.512V28.548Z" fill="#4C1D95"/>
</svg>
